<svg xmlns="http://www.w3.org/2000/svg" xmlns:xlink="http://www.w3.org/1999/xlink" width="500" zoomAndPan="magnify" viewBox="0 0 375 374.999991" height="500" preserveAspectRatio="xMidYMid meet" version="1.0"><defs><g/><clipPath id="4a432e6982"><path d="M 131 61.054688 L 190 61.054688 L 190 139 L 131 139 Z M 131 61.054688 " clip-rule="nonzero"/></clipPath><clipPath id="1276f3fe1b"><path d="M 190 61.054688 L 214 61.054688 L 214 100 L 190 100 Z M 190 61.054688 " clip-rule="nonzero"/></clipPath><clipPath id="c92e2a5e76"><path d="M 185 137 L 246 137 L 246 194.359375 L 185 194.359375 Z M 185 137 " clip-rule="nonzero"/></clipPath></defs><rect x="-37.5" width="450" fill="#ffffff" y="-37.499999" height="449.999989" fill-opacity="1"/><rect x="-37.5" width="450" fill="#ffffff" y="-37.499999" height="449.999989" fill-opacity="1"/><g clip-path="url(#4a432e6982)"><path fill="#3d3b3a" d="M 185.4375 117.480469 C 185.4375 117.988281 185.515625 118.226562 185.675781 118.226562 C 185.917969 118.226562 186.128906 118.226562 186.34375 118.226562 L 185.039062 119.984375 L 145.445312 71.25 L 143.3125 68.90625 L 143.3125 125.769531 C 143.3125 129.984375 144.007812 132.96875 145.421875 134.648438 C 146.832031 136.355469 149.285156 137.183594 152.75 137.183594 C 152.992188 137.183594 153.125 137.421875 153.125 137.929688 C 153.125 138.433594 152.992188 138.675781 152.75 138.675781 C 150.753906 138.675781 149.234375 138.621094 148.167969 138.542969 L 142.222656 138.410156 L 136.117188 138.542969 C 135.050781 138.621094 133.421875 138.675781 131.289062 138.675781 C 131.128906 138.675781 131.050781 138.433594 131.050781 137.929688 C 131.050781 137.421875 131.128906 137.183594 131.289062 137.183594 C 134.835938 137.183594 137.289062 136.355469 138.621094 134.703125 C 139.953125 133.050781 140.621094 130.0625 140.621094 125.746094 L 140.621094 66.238281 C 137.714844 63.757812 134.730469 62.507812 131.691406 62.507812 C 131.449219 62.507812 131.316406 62.265625 131.316406 61.757812 C 131.316406 61.253906 131.449219 61.011719 131.691406 61.011719 L 136.167969 61.144531 C 137.074219 61.226562 138.355469 61.28125 140.035156 61.28125 C 141.449219 61.28125 142.59375 61.226562 143.5 61.144531 C 144.40625 61.066406 145.101562 61.011719 145.605469 61.011719 C 146.191406 61.011719 146.671875 61.144531 147.046875 61.464844 C 147.417969 61.757812 147.847656 62.347656 148.351562 63.253906 C 149.257812 64.746094 150.273438 66.160156 151.339844 67.464844 L 189.117188 114.546875 L 187.464844 116.761719 L 185.675781 116.734375 C 185.515625 116.734375 185.4375 116.972656 185.4375 117.480469 Z M 185.4375 117.480469 " fill-opacity="1" fill-rule="nonzero"/></g><g clip-path="url(#1276f3fe1b)"><path fill="#3d3b3a" d="M 213.136719 61.8125 C 213.136719 62.292969 213.003906 62.558594 212.765625 62.558594 C 209.191406 62.558594 206.6875 63.4375 205.246094 65.171875 C 203.804688 66.90625 203.085938 69.890625 203.085938 74.101562 L 203.085938 96.042969 L 200.367188 99.671875 L 200.367188 74.101562 C 200.367188 69.890625 199.699219 66.90625 198.367188 65.171875 C 197.035156 63.4375 194.636719 62.558594 191.167969 62.558594 C 191.007812 62.558594 190.929688 62.320312 190.929688 61.8125 C 190.929688 61.304688 191.007812 61.066406 191.167969 61.066406 L 195.886719 61.199219 C 198.367188 61.359375 200.367188 61.441406 201.859375 61.441406 C 203.273438 61.441406 205.300781 61.359375 207.9375 61.199219 L 212.792969 61.066406 C 213.003906 61.066406 213.136719 61.304688 213.136719 61.8125 Z M 213.136719 61.8125 " fill-opacity="1" fill-rule="nonzero"/></g><path fill="#3d3b3a" d="M 187.472656 116.75 L 186.355469 118.214844 C 186.140625 118.214844 185.902344 118.214844 185.6875 118.214844 C 185.527344 118.214844 185.449219 117.976562 185.449219 117.46875 C 185.449219 116.960938 185.527344 116.722656 185.6875 116.722656 Z M 187.472656 116.75 " fill-opacity="1" fill-rule="nonzero"/><path fill="#3d3b3a" d="M 203.070312 137.730469 L 203.070312 140.050781 C 203.070312 140.210938 202.855469 140.34375 202.457031 140.421875 C 202.058594 140.503906 201.765625 140.449219 201.578125 140.316406 L 201.335938 140.023438 Z M 203.070312 137.730469 " fill-opacity="1" fill-rule="nonzero"/><g clip-path="url(#c92e2a5e76)"><path fill="#3d3b3a" d="M 245.808594 176.335938 C 245.058594 182.867188 244.6875 188.253906 244.6875 192.492188 C 244.6875 193.15625 244.554688 193.636719 244.3125 193.929688 C 244.074219 194.222656 243.566406 194.359375 242.820312 194.359375 L 185.6875 194.359375 C 185.527344 194.359375 185.449219 194.117188 185.449219 193.609375 C 185.449219 193.105469 185.527344 192.863281 185.6875 192.863281 C 188.914062 192.863281 191.285156 192.652344 192.832031 192.25 C 194.378906 191.824219 195.390625 191.023438 195.953125 189.824219 C 196.484375 188.625 196.75 186.785156 196.75 184.304688 L 196.75 146.15625 L 201.363281 140.023438 L 201.605469 140.316406 C 201.765625 140.476562 202.058594 140.53125 202.484375 140.421875 C 202.882812 140.34375 203.097656 140.210938 203.097656 140.050781 L 203.097656 137.730469 L 203.335938 137.410156 L 203.335938 183.800781 C 203.335938 186.199219 203.601562 187.960938 204.136719 189.078125 C 204.667969 190.199219 205.683594 190.945312 207.121094 191.371094 C 208.5625 191.773438 210.882812 191.984375 214.027344 191.984375 L 229.917969 191.984375 C 238.128906 191.984375 242.953125 186.734375 244.445312 176.203125 C 244.445312 175.960938 244.660156 175.855469 245.113281 175.882812 C 245.566406 175.960938 245.808594 176.09375 245.808594 176.335938 Z M 245.808594 176.335938 " fill-opacity="1" fill-rule="nonzero"/></g><path stroke-linecap="butt" transform="matrix(0.266604, 0, 0, 0.266604, 120.659029, 61.056229)" fill="none" stroke-linejoin="miter" d="M 179.797277 381.206474 L 396.600942 97.399825 " stroke="#3d3b3a" stroke-width="6" stroke-opacity="1" stroke-miterlimit="4"/><g fill="#3d3b3a" fill-opacity="1"><g transform="translate(88.552237, 272.062778)"><g><path d="M 17.8125 0 L 14.859375 0 L 5.359375 -12.796875 L 5.359375 0 L 2.34375 0 L 2.34375 -17.84375 L 5.296875 -17.84375 L 14.859375 -5.015625 L 14.859375 -17.84375 L 17.8125 -17.84375 Z M 17.8125 0 "/></g></g></g><g fill="#3d3b3a" fill-opacity="1"><g transform="translate(118.922966, 272.062778)"><g><path d="M 5.359375 0 L 2.34375 0 L 2.34375 -17.84375 L 5.359375 -17.84375 Z M 5.359375 0 "/></g></g></g><g fill="#3d3b3a" fill-opacity="1"><g transform="translate(136.809632, 272.062778)"><g><path d="M 5.359375 -2.734375 L 13.078125 -2.734375 L 13.078125 0 L 2.34375 0 L 2.34375 -17.84375 L 5.359375 -17.84375 Z M 5.359375 -2.734375 "/></g></g></g><g fill="#3d3b3a" fill-opacity="1"><g transform="translate(160.607126, 272.062778)"><g><path d="M 5.359375 -2.734375 L 13.078125 -2.734375 L 13.078125 0 L 2.34375 0 L 2.34375 -17.84375 L 5.359375 -17.84375 Z M 5.359375 -2.734375 "/></g></g></g><g fill="#3d3b3a" fill-opacity="1"><g transform="translate(184.404625, 272.062778)"><g><path d="M 13.859375 -4.03125 L 4.875 -4.03125 L 3.15625 0 L 0.03125 0 L 7.90625 -17.84375 L 10.984375 -17.84375 L 18.78125 0 L 15.578125 0 Z M 12.71875 -6.703125 L 9.359375 -14.625 L 5.984375 -6.703125 Z M 12.71875 -6.703125 "/></g></g></g><g fill="#3d3b3a" fill-opacity="1"><g transform="translate(213.399568, 272.062778)"><g><path d="M 13.65625 0 L 10.390625 -5.40625 C 10.222656 -5.382812 9.953125 -5.375 9.578125 -5.375 L 5.359375 -5.375 L 5.359375 0 L 2.34375 0 L 2.34375 -17.84375 L 9.578125 -17.84375 C 11.859375 -17.84375 13.625 -17.3125 14.875 -16.25 C 16.132812 -15.1875 16.765625 -13.6875 16.765625 -11.75 C 16.765625 -10.320312 16.445312 -9.113281 15.8125 -8.125 C 15.175781 -7.144531 14.265625 -6.425781 13.078125 -5.96875 L 17.078125 0 Z M 5.359375 -8.078125 L 9.578125 -8.078125 C 12.472656 -8.078125 13.921875 -9.273438 13.921875 -11.671875 C 13.921875 -13.984375 12.472656 -15.140625 9.578125 -15.140625 L 5.359375 -15.140625 Z M 5.359375 -8.078125 "/></g></g></g><g fill="#3d3b3a" fill-opacity="1"><g transform="translate(242.012346, 272.062778)"><g><path d="M 17.5 -17.84375 L 17.5 -7.390625 C 17.5 -5.066406 16.8125 -3.234375 15.4375 -1.890625 C 14.0625 -0.546875 12.164062 0.125 9.75 0.125 C 7.34375 0.125 5.445312 -0.546875 4.0625 -1.890625 C 2.675781 -3.234375 1.984375 -5.066406 1.984375 -7.390625 L 1.984375 -17.84375 L 5 -17.84375 L 5 -7.390625 C 5 -5.890625 5.425781 -4.710938 6.28125 -3.859375 C 7.132812 -3.003906 8.300781 -2.578125 9.78125 -2.578125 C 11.25 -2.578125 12.398438 -3 13.234375 -3.84375 C 14.078125 -4.695312 14.5 -5.878906 14.5 -7.390625 L 14.5 -17.84375 Z M 17.5 -17.84375 "/></g></g></g><g fill="#3d3b3a" fill-opacity="1"><g transform="translate(271.669702, 272.062778)"><g><path d="M 14.53125 -15.140625 L 8.875 -15.140625 L 8.875 0 L 5.859375 0 L 5.859375 -15.140625 L 0.234375 -15.140625 L 0.234375 -17.84375 L 14.53125 -17.84375 Z M 14.53125 -15.140625 "/></g></g></g><g fill="#3d3b3a" fill-opacity="1"><g transform="translate(144.370778, 308.448821)"><g><path d="M -0.484375 3.6875 C -0.503906 3.695312 -0.53125 3.671875 -0.5625 3.609375 C -0.601562 3.546875 -0.609375 3.5 -0.578125 3.46875 C -0.00390625 3.125 0.445312 2.609375 0.78125 1.921875 C 1.113281 1.234375 1.378906 0.335938 1.578125 -0.765625 L 3.28125 -10.390625 C 3.320312 -10.640625 3.34375 -10.84375 3.34375 -11 C 3.34375 -11.28125 3.269531 -11.46875 3.125 -11.5625 C 2.976562 -11.65625 2.710938 -11.703125 2.328125 -11.703125 C 2.285156 -11.703125 2.265625 -11.738281 2.265625 -11.8125 C 2.265625 -11.894531 2.285156 -11.9375 2.328125 -11.9375 L 3.1875 -11.921875 C 3.695312 -11.890625 4.113281 -11.875 4.4375 -11.875 C 4.800781 -11.875 5.238281 -11.890625 5.75 -11.921875 L 6.59375 -11.9375 C 6.625 -11.9375 6.640625 -11.894531 6.640625 -11.8125 C 6.640625 -11.738281 6.625 -11.703125 6.59375 -11.703125 C 6.25 -11.703125 5.984375 -11.660156 5.796875 -11.578125 C 5.617188 -11.503906 5.488281 -11.378906 5.40625 -11.203125 C 5.320312 -11.023438 5.242188 -10.738281 5.171875 -10.34375 L 3.578125 -1.28125 C 3.390625 -0.289062 3.132812 0.507812 2.8125 1.125 C 2.488281 1.75 2.066406 2.25 1.546875 2.625 C 1.035156 3.007812 0.359375 3.363281 -0.484375 3.6875 Z M -0.484375 3.6875 "/></g></g></g><g fill="#3d3b3a" fill-opacity="1"><g transform="translate(156.157422, 308.448821)"><g><path d="M 5.15625 -7.625 C 5.632812 -7.625 6.007812 -7.539062 6.28125 -7.375 C 6.550781 -7.207031 6.6875 -6.976562 6.6875 -6.6875 C 6.6875 -6.113281 6.257812 -5.570312 5.40625 -5.0625 C 4.5625 -4.5625 3.539062 -4.195312 2.34375 -3.96875 C 2.3125 -3.6875 2.296875 -3.414062 2.296875 -3.15625 C 2.296875 -2.382812 2.453125 -1.765625 2.765625 -1.296875 C 3.085938 -0.835938 3.5625 -0.609375 4.1875 -0.609375 C 4.445312 -0.609375 4.734375 -0.65625 5.046875 -0.75 C 5.359375 -0.84375 5.644531 -0.992188 5.90625 -1.203125 L 5.921875 -1.203125 C 5.953125 -1.203125 5.984375 -1.179688 6.015625 -1.140625 C 6.054688 -1.109375 6.0625 -1.078125 6.03125 -1.046875 C 5.570312 -0.597656 5.085938 -0.269531 4.578125 -0.0625 C 4.066406 0.132812 3.5625 0.234375 3.0625 0.234375 C 2.175781 0.234375 1.515625 -0.03125 1.078125 -0.5625 C 0.640625 -1.101562 0.421875 -1.78125 0.421875 -2.59375 C 0.421875 -2.875 0.453125 -3.1875 0.515625 -3.53125 C 0.640625 -4.21875 0.921875 -4.875 1.359375 -5.5 C 1.804688 -6.125 2.359375 -6.632812 3.015625 -7.03125 C 3.679688 -7.425781 4.394531 -7.625 5.15625 -7.625 Z M 4.75 -6.1875 C 4.769531 -6.238281 4.78125 -6.316406 4.78125 -6.421875 C 4.78125 -6.628906 4.722656 -6.796875 4.609375 -6.921875 C 4.503906 -7.046875 4.351562 -7.109375 4.15625 -7.109375 C 3.75 -7.109375 3.390625 -6.84375 3.078125 -6.3125 C 2.765625 -5.789062 2.535156 -5.113281 2.390625 -4.28125 C 3.847656 -4.65625 4.632812 -5.289062 4.75 -6.1875 Z M 4.75 -6.1875 "/></g></g></g><g fill="#3d3b3a" fill-opacity="1"><g transform="translate(168.707832, 308.448821)"><g><path d="M 10.3125 -7.5625 C 10.65625 -7.5625 10.910156 -7.445312 11.078125 -7.21875 C 11.253906 -6.988281 11.34375 -6.582031 11.34375 -6 C 11.34375 -5.65625 11.328125 -5.375 11.296875 -5.15625 C 11.210938 -4.21875 10.96875 -3.328125 10.5625 -2.484375 C 10.164062 -1.648438 9.675781 -0.984375 9.09375 -0.484375 C 8.519531 0.00390625 7.945312 0.25 7.375 0.25 C 6.65625 0.25 6.117188 -0.140625 5.765625 -0.921875 C 5.054688 -0.140625 4.335938 0.25 3.609375 0.25 C 3.035156 0.25 2.59375 0.0664062 2.28125 -0.296875 C 1.96875 -0.660156 1.8125 -1.160156 1.8125 -1.796875 C 1.8125 -2.015625 1.832031 -2.242188 1.875 -2.484375 C 2.007812 -3.347656 2.394531 -4.316406 3.03125 -5.390625 C 3.144531 -5.566406 3.203125 -5.695312 3.203125 -5.78125 C 3.203125 -5.875 3.128906 -5.921875 2.984375 -5.921875 L 2.0625 -5.921875 C 1.613281 -5.921875 1.285156 -5.851562 1.078125 -5.71875 C 0.878906 -5.59375 0.726562 -5.382812 0.625 -5.09375 C 0.601562 -5.039062 0.566406 -5.015625 0.515625 -5.015625 C 0.472656 -5.015625 0.4375 -5.023438 0.40625 -5.046875 C 0.382812 -5.078125 0.382812 -5.113281 0.40625 -5.15625 C 0.601562 -5.75 0.78125 -6.195312 0.9375 -6.5 C 1.101562 -6.8125 1.296875 -7.035156 1.515625 -7.171875 C 1.742188 -7.316406 2.039062 -7.390625 2.40625 -7.390625 L 4.1875 -7.390625 C 4.320312 -7.390625 4.390625 -7.363281 4.390625 -7.3125 C 4.390625 -7.269531 4.367188 -7.21875 4.328125 -7.15625 C 4.066406 -6.53125 3.820312 -5.890625 3.59375 -5.234375 C 3.375 -4.585938 3.234375 -4.046875 3.171875 -3.609375 C 3.140625 -3.472656 3.125 -3.28125 3.125 -3.03125 C 3.125 -2.476562 3.253906 -2.035156 3.515625 -1.703125 C 3.785156 -1.378906 4.132812 -1.21875 4.5625 -1.21875 C 4.882812 -1.21875 5.207031 -1.351562 5.53125 -1.625 C 5.445312 -2.019531 5.40625 -2.5 5.40625 -3.0625 C 5.40625 -3.695312 5.457031 -4.300781 5.5625 -4.875 C 5.71875 -5.769531 5.929688 -6.425781 6.203125 -6.84375 C 6.472656 -7.269531 6.804688 -7.484375 7.203125 -7.484375 C 7.722656 -7.484375 7.984375 -7.113281 7.984375 -6.375 C 7.984375 -6.15625 7.960938 -5.898438 7.921875 -5.609375 C 7.835938 -5.003906 7.6875 -4.394531 7.46875 -3.78125 C 7.25 -3.164062 6.976562 -2.597656 6.65625 -2.078125 C 7.082031 -1.503906 7.632812 -1.21875 8.3125 -1.21875 C 8.800781 -1.21875 9.242188 -1.457031 9.640625 -1.9375 C 10.046875 -2.414062 10.296875 -3.035156 10.390625 -3.796875 C 10.398438 -3.890625 10.40625 -4.019531 10.40625 -4.1875 C 10.40625 -4.488281 10.351562 -4.742188 10.25 -4.953125 C 10.144531 -5.160156 9.976562 -5.394531 9.75 -5.65625 C 9.59375 -5.832031 9.472656 -5.992188 9.390625 -6.140625 C 9.304688 -6.285156 9.265625 -6.445312 9.265625 -6.625 C 9.265625 -6.925781 9.363281 -7.15625 9.5625 -7.3125 C 9.757812 -7.476562 10.007812 -7.5625 10.3125 -7.5625 Z M 6.015625 -5 C 5.972656 -4.800781 5.953125 -4.578125 5.953125 -4.328125 C 5.953125 -3.722656 6.085938 -3.140625 6.359375 -2.578125 C 6.628906 -2.984375 6.847656 -3.414062 7.015625 -3.875 C 7.191406 -4.332031 7.28125 -4.738281 7.28125 -5.09375 C 7.28125 -5.550781 7.09375 -5.78125 6.71875 -5.78125 C 6.550781 -5.78125 6.40625 -5.722656 6.28125 -5.609375 C 6.164062 -5.492188 6.078125 -5.289062 6.015625 -5 Z M 6.015625 -5 "/></g></g></g><g fill="#3d3b3a" fill-opacity="1"><g transform="translate(186.432736, 308.448821)"><g><path d="M 5.15625 -7.625 C 5.632812 -7.625 6.007812 -7.539062 6.28125 -7.375 C 6.550781 -7.207031 6.6875 -6.976562 6.6875 -6.6875 C 6.6875 -6.113281 6.257812 -5.570312 5.40625 -5.0625 C 4.5625 -4.5625 3.539062 -4.195312 2.34375 -3.96875 C 2.3125 -3.6875 2.296875 -3.414062 2.296875 -3.15625 C 2.296875 -2.382812 2.453125 -1.765625 2.765625 -1.296875 C 3.085938 -0.835938 3.5625 -0.609375 4.1875 -0.609375 C 4.445312 -0.609375 4.734375 -0.65625 5.046875 -0.75 C 5.359375 -0.84375 5.644531 -0.992188 5.90625 -1.203125 L 5.921875 -1.203125 C 5.953125 -1.203125 5.984375 -1.179688 6.015625 -1.140625 C 6.054688 -1.109375 6.0625 -1.078125 6.03125 -1.046875 C 5.570312 -0.597656 5.085938 -0.269531 4.578125 -0.0625 C 4.066406 0.132812 3.5625 0.234375 3.0625 0.234375 C 2.175781 0.234375 1.515625 -0.03125 1.078125 -0.5625 C 0.640625 -1.101562 0.421875 -1.78125 0.421875 -2.59375 C 0.421875 -2.875 0.453125 -3.1875 0.515625 -3.53125 C 0.640625 -4.21875 0.921875 -4.875 1.359375 -5.5 C 1.804688 -6.125 2.359375 -6.632812 3.015625 -7.03125 C 3.679688 -7.425781 4.394531 -7.625 5.15625 -7.625 Z M 4.75 -6.1875 C 4.769531 -6.238281 4.78125 -6.316406 4.78125 -6.421875 C 4.78125 -6.628906 4.722656 -6.796875 4.609375 -6.921875 C 4.503906 -7.046875 4.351562 -7.109375 4.15625 -7.109375 C 3.75 -7.109375 3.390625 -6.84375 3.078125 -6.3125 C 2.765625 -5.789062 2.535156 -5.113281 2.390625 -4.28125 C 3.847656 -4.65625 4.632812 -5.289062 4.75 -6.1875 Z M 4.75 -6.1875 "/></g></g></g><g fill="#3d3b3a" fill-opacity="1"><g transform="translate(198.983148, 308.448821)"><g><path d="M 1.796875 0.171875 C 1.179688 0.171875 0.875 -0.191406 0.875 -0.921875 C 0.875 -1.171875 0.898438 -1.429688 0.953125 -1.703125 L 2.71875 -11.25 C 2.75 -11.5 2.765625 -11.707031 2.765625 -11.875 C 2.765625 -12.25 2.644531 -12.4375 2.40625 -12.4375 C 2.25 -12.4375 1.984375 -12.34375 1.609375 -12.15625 L 1.578125 -12.15625 C 1.515625 -12.15625 1.476562 -12.191406 1.46875 -12.265625 C 1.457031 -12.335938 1.476562 -12.378906 1.53125 -12.390625 L 4.484375 -13.84375 L 4.53125 -13.84375 C 4.582031 -13.84375 4.628906 -13.820312 4.671875 -13.78125 C 4.710938 -13.75 4.726562 -13.71875 4.71875 -13.6875 L 2.578125 -1.703125 C 2.535156 -1.503906 2.515625 -1.34375 2.515625 -1.21875 C 2.515625 -0.9375 2.613281 -0.796875 2.8125 -0.796875 C 2.9375 -0.796875 3.078125 -0.851562 3.234375 -0.96875 C 3.390625 -1.082031 3.582031 -1.25 3.8125 -1.46875 C 3.84375 -1.5 3.867188 -1.515625 3.890625 -1.515625 C 3.929688 -1.515625 3.960938 -1.488281 3.984375 -1.4375 C 4.015625 -1.394531 4.007812 -1.351562 3.96875 -1.3125 C 3.539062 -0.800781 3.160156 -0.425781 2.828125 -0.1875 C 2.492188 0.0507812 2.148438 0.171875 1.796875 0.171875 Z M 1.796875 0.171875 "/></g></g></g><g fill="#3d3b3a" fill-opacity="1"><g transform="translate(209.433212, 308.448821)"><g><path d="M 5.671875 -7.546875 C 6.003906 -7.546875 6.316406 -7.421875 6.609375 -7.171875 C 6.910156 -6.929688 7.035156 -6.660156 6.984375 -6.359375 C 6.960938 -6.171875 6.875 -5.992188 6.71875 -5.828125 C 6.5625 -5.660156 6.367188 -5.578125 6.140625 -5.578125 C 5.910156 -5.578125 5.664062 -5.6875 5.40625 -5.90625 C 5.3125 -5.96875 5.21875 -6.019531 5.125 -6.0625 C 5.039062 -6.113281 4.957031 -6.140625 4.875 -6.140625 C 4.65625 -6.140625 4.382812 -5.800781 4.0625 -5.125 C 3.75 -4.457031 3.445312 -3.65625 3.15625 -2.71875 C 2.875 -1.78125 2.671875 -0.957031 2.546875 -0.25 L 2.546875 -0.234375 C 2.515625 -0.117188 2.410156 -0.0234375 2.234375 0.046875 C 2.054688 0.117188 1.800781 0.15625 1.46875 0.15625 C 1.050781 0.15625 0.84375 0.101562 0.84375 0 C 0.851562 -0.09375 0.890625 -0.285156 0.953125 -0.578125 C 1.023438 -0.867188 1.085938 -1.144531 1.140625 -1.40625 L 1.921875 -5.671875 C 1.953125 -5.867188 1.96875 -6.003906 1.96875 -6.078125 C 1.96875 -6.429688 1.851562 -6.609375 1.625 -6.609375 C 1.363281 -6.609375 1 -6.351562 0.53125 -5.84375 C 0.519531 -5.832031 0.503906 -5.828125 0.484375 -5.828125 C 0.429688 -5.828125 0.390625 -5.847656 0.359375 -5.890625 C 0.335938 -5.929688 0.34375 -5.972656 0.375 -6.015625 C 0.832031 -6.546875 1.242188 -6.929688 1.609375 -7.171875 C 1.972656 -7.421875 2.34375 -7.546875 2.71875 -7.546875 C 3.03125 -7.546875 3.253906 -7.457031 3.390625 -7.28125 C 3.535156 -7.113281 3.609375 -6.863281 3.609375 -6.53125 C 3.609375 -6.34375 3.585938 -6.132812 3.546875 -5.90625 L 3.171875 -3.796875 C 3.921875 -6.296875 4.753906 -7.546875 5.671875 -7.546875 Z M 5.671875 -7.546875 "/></g></g></g><g fill="#3d3b3a" fill-opacity="1"><g transform="translate(221.964541, 308.448821)"><g><path d="M 7.03125 -7.5625 C 7.34375 -7.5625 7.585938 -7.445312 7.765625 -7.21875 C 7.941406 -6.988281 8.03125 -6.65625 8.03125 -6.21875 C 8.03125 -5.28125 7.515625 -3.863281 6.484375 -1.96875 C 5.453125 -0.0703125 4.273438 1.617188 2.953125 3.109375 C 1.628906 4.609375 0.550781 5.359375 -0.28125 5.359375 C -1.03125 5.359375 -1.40625 5.0625 -1.40625 4.46875 C -1.40625 4.113281 -1.304688 3.835938 -1.109375 3.640625 C -0.921875 3.441406 -0.644531 3.34375 -0.28125 3.34375 C -0.09375 3.34375 0.164062 3.421875 0.5 3.578125 C 0.53125 3.585938 0.625 3.625 0.78125 3.6875 C 0.9375 3.75 1.085938 3.78125 1.234375 3.78125 C 1.453125 3.78125 1.671875 3.703125 1.890625 3.546875 C 2.222656 3.335938 2.632812 2.90625 3.125 2.25 L 3.125 1.359375 C 3.125 -1.128906 2.945312 -3.054688 2.59375 -4.421875 C 2.25 -5.785156 1.785156 -6.46875 1.203125 -6.46875 C 1.046875 -6.46875 0.890625 -6.410156 0.734375 -6.296875 C 0.578125 -6.179688 0.445312 -6.039062 0.34375 -5.875 C 0.332031 -5.84375 0.296875 -5.828125 0.234375 -5.828125 C 0.140625 -5.828125 0.0976562 -5.863281 0.109375 -5.9375 C 0.328125 -6.394531 0.660156 -6.773438 1.109375 -7.078125 C 1.554688 -7.390625 1.960938 -7.546875 2.328125 -7.546875 C 2.816406 -7.546875 3.238281 -7.257812 3.59375 -6.6875 C 3.957031 -6.125 4.234375 -5.347656 4.421875 -4.359375 C 4.609375 -3.378906 4.703125 -2.273438 4.703125 -1.046875 C 4.703125 -0.566406 4.691406 -0.195312 4.671875 0.0625 C 5.171875 -0.726562 5.601562 -1.460938 5.96875 -2.140625 C 6.332031 -2.828125 6.550781 -3.328125 6.625 -3.640625 C 6.695312 -3.953125 6.734375 -4.21875 6.734375 -4.4375 C 6.734375 -4.695312 6.695312 -4.910156 6.625 -5.078125 C 6.550781 -5.242188 6.441406 -5.4375 6.296875 -5.65625 C 6.171875 -5.84375 6.078125 -5.992188 6.015625 -6.109375 C 5.953125 -6.234375 5.921875 -6.394531 5.921875 -6.59375 C 5.921875 -6.882812 6.019531 -7.117188 6.21875 -7.296875 C 6.425781 -7.472656 6.695312 -7.5625 7.03125 -7.5625 Z M 7.03125 -7.5625 "/></g></g></g><g fill="#3d3b3a" fill-opacity="1"><g transform="translate(236.351395, 308.448821)"><g/></g></g></svg>