<?xml version="1.0" encoding="utf-8"?>
<!-- Generator: Adobe Illustrator 24.0.0, SVG Export Plug-In . SVG Version: 6.00 Build 0)  -->
<svg version="1.1" id="Layer_1" xmlns="http://www.w3.org/2000/svg" xmlns:xlink="http://www.w3.org/1999/xlink" x="0px" y="0px"
	 viewBox="0 0 500 500" style="enable-background:new 0 0 500 500;" xml:space="preserve">
<style type="text/css">
	.st0{fill:#3D3B3A;}
	.st1{fill:none;stroke:#3D3B3A;stroke-width:6;stroke-miterlimit:4;}
</style>
<g>
	<g>
		<g transform="translate(59.076403, 208.038339)">
			<g>
				<path class="st0" d="M183.9,3.6c0,1.9,0.3,2.8,0.9,2.8c0.9,0,1.7,0,2.5,0l-4.9,6.6L33.9-169.8l-8-8.8V34.7
					c0,15.8,2.6,27,7.9,33.3c5.3,6.4,14.5,9.5,27.5,9.5c0.9,0,1.4,0.9,1.4,2.8c0,1.9-0.5,2.8-1.4,2.8c-7.5,0-13.2-0.2-17.2-0.5
					l-22.3-0.5l-22.9,0.5c-4,0.3-10.1,0.5-18.1,0.5c-0.6,0-0.9-0.9-0.9-2.8c0-1.9,0.3-2.8,0.9-2.8c13.3,0,22.5-3.1,27.5-9.3
					c5-6.2,7.5-17.4,7.5-33.6v-223.2c-10.9-9.3-22.1-14-33.5-14c-0.9,0-1.4-0.9-1.4-2.8c0-1.9,0.5-2.8,1.4-2.8l16.8,0.5
					c3.4,0.3,8.2,0.5,14.5,0.5c5.3,0,9.6-0.2,13-0.5c3.4-0.3,6-0.5,7.9-0.5c2.2,0,4,0.5,5.4,1.7c1.4,1.1,3,3.3,4.9,6.7
					c3.4,5.6,7.2,10.9,11.2,15.8L197.7-7.4l-6.2,8.3l-6.7-0.1C184.2,0.8,183.9,1.7,183.9,3.6z"/>
				<path class="st0" d="M287.8-205.2c0,1.8-0.5,2.8-1.4,2.8c-13.4,0-22.8,3.3-28.2,9.8c-5.4,6.5-8.1,17.7-8.1,33.5v82.3l-10.2,13.6
					v-95.9c0-15.8-2.5-27-7.5-33.5c-5-6.5-14-9.8-27-9.8c-0.6,0-0.9-0.9-0.9-2.8c0-1.9,0.3-2.8,0.9-2.8l17.7,0.5
					c9.3,0.6,16.8,0.9,22.4,0.9c5.3,0,12.9-0.3,22.8-0.9l18.2-0.5C287.3-208,287.8-207.1,287.8-205.2z"/>
			</g>
		</g>
	</g>
	<g>
		<g transform="translate(159.413969, 309.097495)">
			<g>
				<path class="st0" d="M91.2-100.2L87-94.7c-0.8,0-1.7,0-2.5,0c-0.6,0-0.9-0.9-0.9-2.8c0-1.9,0.3-2.8,0.9-2.8L91.2-100.2z"/>
				<path class="st0" d="M149.7-21.5v8.7c0,0.6-0.8,1.1-2.3,1.4c-1.5,0.3-2.6,0.1-3.3-0.4l-0.9-1.1L149.7-21.5z"/>
				<path class="st0" d="M310,123.3c-2.8,24.5-4.2,44.7-4.2,60.6c0,2.5-0.5,4.3-1.4,5.4c-0.9,1.1-2.8,1.6-5.6,1.6H84.5
					c-0.6,0-0.9-0.9-0.9-2.8c0-1.9,0.3-2.8,0.9-2.8c12.1,0,21-0.8,26.8-2.3c5.8-1.6,9.6-4.6,11.7-9.1c2-4.5,3-11.4,3-20.7V10.1
					l17.3-23l0.9,1.1c0.6,0.6,1.7,0.8,3.3,0.4c1.5-0.3,2.3-0.8,2.3-1.4v-8.7l0.9-1.2v174c0,9,1,15.6,3,19.8c2,4.2,5.8,7,11.2,8.6
					c5.4,1.5,14.1,2.3,25.9,2.3h59.6c30.8,0,48.9-19.7,54.5-59.2c0-0.9,0.8-1.3,2.5-1.2C309.1,121.9,310,122.4,310,123.3z"/>
			</g>
		</g>
	</g>
	<path class="st1" d="M179.8,381.2L396.6,97.4"/>
</g>
</svg>
