<svg xmlns="http://www.w3.org/2000/svg" xmlns:xlink="http://www.w3.org/1999/xlink" width="500" zoomAndPan="magnify" viewBox="0 0 375 374.999991" height="500" preserveAspectRatio="xMidYMid meet" version="1.0"><defs><clipPath id="ca00d0d5b3"><path d="M 68 47.011719 L 192 47.011719 L 192 211 L 68 211 Z M 68 47.011719 " clip-rule="nonzero"/></clipPath><clipPath id="660fe39ec8"><path d="M 195 47.011719 L 243 47.011719 L 243 129 L 195 129 Z M 195 47.011719 " clip-rule="nonzero"/></clipPath><clipPath id="d96f8c6647"><path d="M 183 208 L 312 208 L 312 328.261719 L 183 328.261719 Z M 183 208 " clip-rule="nonzero"/></clipPath></defs><rect x="-37.5" width="450" fill="#ffffff" y="-37.499999" height="449.999989" fill-opacity="1"/><rect x="-37.5" width="450" fill="#ffffff" y="-37.499999" height="449.999989" fill-opacity="1"/><g clip-path="url(#ca00d0d5b3)"><path fill="#3d3b3a" d="M 183.6875 166.058594 C 183.6875 167.128906 183.855469 167.632812 184.195312 167.632812 C 184.699219 167.632812 185.148438 167.632812 185.601562 167.632812 L 182.84375 171.347656 L 99.3125 68.523438 L 94.8125 63.570312 L 94.8125 183.554688 C 94.8125 192.441406 96.273438 198.742188 99.257812 202.285156 C 102.238281 205.882812 107.414062 207.628906 114.726562 207.628906 C 115.230469 207.628906 115.511719 208.132812 115.511719 209.203125 C 115.511719 210.273438 115.230469 210.777344 114.726562 210.777344 C 110.507812 210.777344 107.300781 210.664062 105.050781 210.496094 L 92.507812 210.214844 L 79.625 210.496094 C 77.375 210.664062 73.945312 210.777344 69.445312 210.777344 C 69.105469 210.777344 68.9375 210.273438 68.9375 209.203125 C 68.9375 208.132812 69.105469 207.628906 69.445312 207.628906 C 76.925781 207.628906 82.101562 205.882812 84.914062 202.398438 C 87.726562 198.910156 89.132812 192.609375 89.132812 183.496094 L 89.132812 57.945312 C 83 52.714844 76.699219 50.070312 70.289062 50.070312 C 69.78125 50.070312 69.5 49.566406 69.5 48.496094 C 69.5 47.429688 69.78125 46.921875 70.289062 46.921875 L 79.738281 47.203125 C 81.648438 47.371094 84.351562 47.484375 87.894531 47.484375 C 90.875 47.484375 93.292969 47.371094 95.207031 47.203125 C 97.117188 47.035156 98.582031 46.921875 99.648438 46.921875 C 100.886719 46.921875 101.898438 47.203125 102.6875 47.878906 C 103.476562 48.496094 104.375 49.734375 105.445312 51.648438 C 107.355469 54.796875 109.492188 57.777344 111.742188 60.535156 L 191.449219 159.871094 L 187.960938 164.539062 L 184.195312 164.484375 C 183.855469 164.484375 183.6875 164.992188 183.6875 166.058594 Z M 183.6875 166.058594 " fill-opacity="1" fill-rule="nonzero"/></g><g clip-path="url(#660fe39ec8)"><path fill="#3d3b3a" d="M 242.132812 48.609375 C 242.132812 49.621094 241.851562 50.183594 241.34375 50.183594 C 233.804688 50.183594 228.519531 52.039062 225.480469 55.695312 C 222.445312 59.351562 220.925781 65.652344 220.925781 74.539062 L 220.925781 120.835938 L 215.1875 128.484375 L 215.1875 74.539062 C 215.1875 65.652344 213.78125 59.351562 210.96875 55.695312 C 208.15625 52.039062 203.09375 50.183594 195.78125 50.183594 C 195.445312 50.183594 195.273438 49.679688 195.273438 48.609375 C 195.273438 47.539062 195.445312 47.035156 195.78125 47.035156 L 205.738281 47.316406 C 210.96875 47.652344 215.1875 47.820312 218.335938 47.820312 C 221.320312 47.820312 225.59375 47.652344 231.164062 47.316406 L 241.398438 47.035156 C 241.851562 47.035156 242.132812 47.539062 242.132812 48.609375 Z M 242.132812 48.609375 " fill-opacity="1" fill-rule="nonzero"/></g><path fill="#3d3b3a" d="M 187.984375 164.519531 L 185.621094 167.613281 C 185.171875 167.613281 184.664062 167.613281 184.214844 167.613281 C 183.878906 167.613281 183.707031 167.105469 183.707031 166.035156 C 183.707031 164.96875 183.878906 164.460938 184.214844 164.460938 Z M 187.984375 164.519531 " fill-opacity="1" fill-rule="nonzero"/><path fill="#3d3b3a" d="M 220.890625 208.785156 L 220.890625 213.679688 C 220.890625 214.019531 220.441406 214.300781 219.597656 214.46875 C 218.753906 214.636719 218.132812 214.523438 217.738281 214.242188 L 217.234375 213.625 Z M 220.890625 208.785156 " fill-opacity="1" fill-rule="nonzero"/><g clip-path="url(#d96f8c6647)"><path fill="#3d3b3a" d="M 311.058594 290.238281 C 309.484375 304.019531 308.695312 315.378906 308.695312 324.324219 C 308.695312 325.730469 308.414062 326.742188 307.910156 327.363281 C 307.402344 327.980469 306.332031 328.261719 304.757812 328.261719 L 184.214844 328.261719 C 183.878906 328.261719 183.707031 327.753906 183.707031 326.6875 C 183.707031 325.617188 183.878906 325.113281 184.214844 325.113281 C 191.019531 325.113281 196.027344 324.660156 199.289062 323.816406 C 202.550781 322.917969 204.691406 321.230469 205.871094 318.699219 C 206.996094 316.167969 207.558594 312.285156 207.558594 307.054688 L 207.558594 226.5625 L 217.289062 213.625 L 217.796875 214.242188 C 218.132812 214.582031 218.753906 214.691406 219.652344 214.46875 C 220.496094 214.300781 220.945312 214.019531 220.945312 213.679688 L 220.945312 208.785156 L 221.453125 208.113281 L 221.453125 305.988281 C 221.453125 311.050781 222.015625 314.761719 223.140625 317.125 C 224.265625 319.488281 226.402344 321.0625 229.441406 321.960938 C 232.476562 322.804688 237.371094 323.253906 244.007812 323.253906 L 277.535156 323.253906 C 294.859375 323.253906 305.039062 312.175781 308.191406 289.957031 C 308.191406 289.449219 308.640625 289.222656 309.597656 289.28125 C 310.550781 289.449219 311.058594 289.730469 311.058594 290.238281 Z M 311.058594 290.238281 " fill-opacity="1" fill-rule="nonzero"/></g><path stroke-linecap="butt" transform="matrix(0.5625, 0, 0, 0.5625, 47.013249, 47.013244)" fill="none" stroke-linejoin="miter" d="M 179.802848 381.198702 L 396.601473 97.400072 " stroke="#3d3b3a" stroke-width="6" stroke-opacity="1" stroke-miterlimit="4"/></svg>